# xmcd
#
# Track frame offsets: 
#        150
#        12000
#        22317
#        42357
#        51888
#        61985
#        73295
#        83354
#        92170
#        103120
#        113062
#        124504
#        134618
#        146564
#        159969
#        170503
#        181877
#        198582
#        210032
#        224009
#        237314
#
# Disc length: 3494 seconds
#
# Revision: 0
# Processed by: cddbd v1.5.2PL0 Copyright (c) Steve Scherf et al.
# Submitted via: ExactAudioCopy v0.99pb4
#
DISCID=2b0da415
DTITLE=The platinum collection - The Mar-Keys
DYEAR=2007
DGENRE=Soul
TTITLE0=Last night
TTITLE1=Philly dog
TTITLE2=Grab this thing
TTITLE3=Hold it
TTITLE4=One degree north
TTITLE5=Sack O'woe
TTITLE6=Morning after
TTITLE7=Diana
TTITLE8=Alright, OK, you win
TTITLE9=Night before
TTITLE10=About noon
TTITLE11=In the mood
TTITLE12=Plantation Inn
TTITLE13=Cleo's back
TTITLE14=Honey pot
TTITLE15=Walking with the duke
TTITLE16=Ebb tide
TTITLE17=Misty
TTITLE18=I've been loving you for too long
TTITLE19=The girl from Ipanema
TTITLE20='Dear James' Medley
EXTD=
EXTT0=
EXTT1=
EXTT2=
EXTT3=
EXTT4=
EXTT5=
EXTT6=
EXTT7=
EXTT8=
EXTT9=
EXTT10=
EXTT11=
EXTT12=
EXTT13=
EXTT14=
EXTT15=
EXTT16=
EXTT17=
EXTT18=
EXTT19=
EXTT20=
PLAYORDER=
